PathFileType  4	(X/Y/Z) C:\Users\wagnerel85475\Documents\Thesis\opencap-core\Data\3375ffbc-daeb-4a43-b4f7-ac9899cd4c71\MarkerData\PreAugmentation
DataRate	CameraRate	NumFrames	NumMarkers	Units	OrigDataRate	OrigDataStartFrame	OrigNumFrames
60.0	60.0	17	20	m	60.0	1	897
Frame#	Time	Neck			RShoulder			RElbow			RWrist			LShoulder			LElbow			LWrist			midHip			RHip			RKnee			RAnkle			LHip			LKnee			LAnkle			LBigToe			LSmallToe			LHeel			RBigToe			RSmallToe			RHeel			
		X1	Y1	Z1	X2	Y2	Z2	X3	Y3	Z3	X4	Y4	Z4	X5	Y5	Z5	X6	Y6	Z6	X7	Y7	Z7	X8	Y8	Z8	X9	Y9	Z9	X10	Y10	Z10	X11	Y11	Z11	X12	Y12	Z12	X13	Y13	Z13	X14	Y14	Z14	X15	Y15	Z15	X16	Y16	Z16	X17	Y17	Z17	X18	Y18	Z18	X19	Y19	Z19	X20	Y20	Z20	

1	0.0000000	0.6609600	1.3825400	-0.1036700	0.6783000	1.3561200	0.0753300	0.6435600	1.0430000	0.1531600	0.7320500	0.7598600	0.2129800	0.6708800	1.4101400	-0.2839700	0.8153300	1.5588000	-0.4802600	0.9294700	1.8392400	-0.4830400	0.6876300	0.8050400	-0.1044600	0.7127300	0.8111200	0.0136600	0.6143600	0.2991400	0.0347900	0.5897200	-0.1974300	0.0764800	0.6965100	0.8028400	-0.2263400	0.6220500	0.3141900	-0.2235800	0.6097600	-0.1895500	-0.2905300	0.8267500	-0.2282800	-0.3417500	0.7784600	-0.2309000	-0.3745600	0.5435400	-0.2453500	-0.2846900	0.7929400	-0.2331100	0.1329800	0.7483900	-0.2347200	0.1671300	0.5653300	-0.2391100	0.0600500
2	0.0166667	0.6613500	1.3842900	-0.1037300	0.6783900	1.3562000	0.0753400	0.6378600	1.0426400	0.1514200	0.7316300	0.7598400	0.2128500	0.6763300	1.4142300	-0.2818800	0.8190900	1.5731000	-0.4736100	0.9245900	1.8484700	-0.4768100	0.6876500	0.8050200	-0.1043800	0.7120600	0.8092800	0.0138400	0.6192100	0.3021300	0.0321000	0.5896500	-0.1975300	0.0764900	0.7014600	0.8034200	-0.2286800	0.6222900	0.3143500	-0.2236100	0.6097500	-0.1896300	-0.2905500	0.8266400	-0.2283000	-0.3416900	0.7784200	-0.2310100	-0.3745800	0.5434600	-0.2455500	-0.2848400	0.7928100	-0.2332300	0.1329300	0.7486500	-0.2346000	0.1671200	0.5651800	-0.2390300	0.0600600
3	0.0333333	0.6612200	1.3863900	-0.1036300	0.6727200	1.3580200	0.0734000	0.6380300	1.0400600	0.1512900	0.7262600	0.7591200	0.2112500	0.6715100	1.4183400	-0.2837900	0.8185100	1.5827800	-0.4689800	0.8965700	1.8649500	-0.4686700	0.6925900	0.8056000	-0.1068500	0.7069700	0.8086400	0.0118200	0.6251300	0.3035300	0.0339300	0.5897100	-0.1974300	0.0764700	0.7016500	0.8034500	-0.2286500	0.6220600	0.3142300	-0.2235700	0.6097900	-0.1896200	-0.2905400	0.8266700	-0.2280700	-0.3417500	0.7784500	-0.2308300	-0.3745400	0.5382400	-0.2491300	-0.2872800	0.7882900	-0.2363900	0.1358500	0.7480600	-0.2361600	0.1675200	0.5653400	-0.2391200	0.0600500
4	0.0500000	0.6613100	1.3842900	-0.1037200	0.6728000	1.3580800	0.0734200	0.6380800	1.0400300	0.1513200	0.7246100	0.7589500	0.2067500	0.6714600	1.4122200	-0.2795600	0.8185500	1.5952000	-0.4687700	0.8954700	1.8740600	-0.4649800	0.6926000	0.8056300	-0.1067700	0.7062400	0.8109800	0.0120200	0.6192000	0.3021300	0.0320900	0.5896600	-0.1975300	0.0764900	0.7014800	0.8034200	-0.2287100	0.6223200	0.3143600	-0.2235900	0.6097700	-0.1896700	-0.2905600	0.8265800	-0.2281300	-0.3416900	0.7783800	-0.2309100	-0.3745800	0.5381900	-0.2493700	-0.2874400	0.7881700	-0.2365200	0.1357900	0.7483300	-0.2360500	0.1674900	0.5652000	-0.2390700	0.0600500
5	0.0666667	0.6610300	1.3844400	-0.1036200	0.6727400	1.3580100	0.0733900	0.6379500	1.0400100	0.1512600	0.7191300	0.7564600	0.2052700	0.6663500	1.4081100	-0.2769600	0.8025200	1.6044900	-0.4631100	0.8900100	1.8866400	-0.4630800	0.6926400	0.8056400	-0.1068600	0.7070000	0.8086400	0.0118100	0.6194100	0.3045400	0.0322500	0.5897500	-0.1974200	0.0764700	0.7017200	0.8034400	-0.2286500	0.6220800	0.3142000	-0.2235600	0.6097800	-0.1895900	-0.2905400	0.8266400	-0.2280300	-0.3417600	0.7784100	-0.2307700	-0.3745600	0.5382700	-0.2491600	-0.2872900	0.7882100	-0.2380000	0.1362500	0.7433800	-0.2379700	0.1701200	0.5654200	-0.2391600	0.0600500
6	0.0833333	0.6615300	1.3862000	-0.1036600	0.6832700	1.3579300	0.0728100	0.6380300	1.0399900	0.1513000	0.7187000	0.7564300	0.2051100	0.6715000	1.4122500	-0.2749600	0.8027300	1.6126900	-0.4583600	0.8754000	1.8920800	-0.4533200	0.6926400	0.8056500	-0.1067800	0.7068200	0.8106300	0.0117200	0.6200400	0.3027200	0.0370500	0.5896400	-0.1975500	0.0765100	0.7014900	0.8034100	-0.2287200	0.6223300	0.3143700	-0.2235900	0.6097800	-0.1896700	-0.2905500	0.8265500	-0.2281700	-0.3416800	0.7783100	-0.2309100	-0.3745800	0.5434900	-0.2456200	-0.2848400	0.7888400	-0.2379900	0.1404200	0.7346900	-0.2437800	0.1748900	0.5654000	-0.2406000	0.0603700
7	0.1000000	0.6613000	1.3864000	-0.1035300	0.6832700	1.3579100	0.0727900	0.6429600	1.0376900	0.1485300	0.7237400	0.7570600	0.2026100	0.6554800	1.4146900	-0.2724500	0.7963500	1.6271800	-0.4521900	0.8828600	1.9062300	-0.4356300	0.6926400	0.8056700	-0.1068800	0.7128700	0.8112000	0.0136500	0.6201800	0.3069700	0.0369700	0.5900400	-0.1967600	0.0771500	0.7016800	0.8034400	-0.2286700	0.6222100	0.3097700	-0.2240400	0.6101800	-0.1915900	-0.2909000	0.8224700	-0.2279300	-0.3435600	0.7783300	-0.2307600	-0.3745500	0.5436900	-0.2472400	-0.2850400	0.7835500	-0.2397900	0.1388300	0.7340900	-0.2415500	0.1753200	0.5658100	-0.2381400	0.0607000
8	0.1166667	0.6617900	1.3881400	-0.1036300	0.6834600	1.3597200	0.0727900	0.6430600	1.0376500	0.1485600	0.7233600	0.7570000	0.2024300	0.6605800	1.4189000	-0.2750700	0.7965800	1.6334500	-0.4474600	0.8831400	1.9156900	-0.4354700	0.6926300	0.8056500	-0.1068000	0.7123500	0.8112600	0.0136900	0.6250500	0.3057500	0.0342500	0.5896400	-0.1975300	0.0765000	0.7065800	0.8040100	-0.2310200	0.6223200	0.3121000	-0.2238500	0.6102000	-0.1917100	-0.2909300	0.8220200	-0.2300000	-0.3438300	0.7782700	-0.2309000	-0.3745900	0.5436600	-0.2474900	-0.2851900	0.7788800	-0.2416600	0.1412600	0.7344100	-0.2414200	0.1752900	0.5656100	-0.2380000	0.0606900
9	0.1333333	0.6615100	1.3883400	-0.1035700	0.6832600	1.3578800	0.0727800	0.6429700	1.0376700	0.1485200	0.7228600	0.7546300	0.1980900	0.6607400	1.4208600	-0.2747000	0.8102700	1.6421300	-0.4401700	0.8632100	1.9267800	-0.4275500	0.6926300	0.8056700	-0.1068800	0.7128500	0.8112200	0.0136400	0.6253000	0.3039600	0.0343900	0.5897200	-0.1974000	0.0764700	0.7067900	0.8040500	-0.2309600	0.6220700	0.3119000	-0.2238200	0.6102000	-0.1916300	-0.2909100	0.8221000	-0.2299300	-0.3439000	0.7783100	-0.2307400	-0.3745600	0.5437000	-0.2472900	-0.2850400	0.7889100	-0.2378700	0.1405100	0.7343300	-0.2399800	0.1749400	0.5657700	-0.2380700	0.0606900
10	0.1500000	0.6616400	1.3881600	-0.1036600	0.6728000	1.3581000	0.0734000	0.6427700	1.0402500	0.1486200	0.7270300	0.7552200	0.1952800	0.6506400	1.4214200	-0.2749800	0.8105600	1.6544400	-0.4353600	0.8483700	1.9470600	-0.4175100	0.6926100	0.8056300	-0.1067900	0.7123200	0.8112100	0.0137000	0.6251200	0.3080600	0.0344800	0.5896100	-0.1975100	0.0765000	0.7065600	0.8039800	-0.2310300	0.6223500	0.3121000	-0.2238300	0.6101900	-0.1916900	-0.2909300	0.8220700	-0.2300500	-0.3438200	0.7782600	-0.2308700	-0.3746000	0.5436300	-0.2474500	-0.2851800	0.7752000	-0.2418200	0.1476700	0.7299200	-0.2413900	0.1775200	0.5655900	-0.2379000	0.0606800
11	0.1666667	0.6616000	1.3903100	-0.1035600	0.6775400	1.3579800	0.0708500	0.6426700	1.0402700	0.1485600	0.7218500	0.7544900	0.1936800	0.6456300	1.4236100	-0.2769500	0.8051500	1.6589800	-0.4333900	0.8475800	1.9521400	-0.4173500	0.6923900	0.8079800	-0.1067600	0.7069700	0.8128400	0.0118000	0.6203300	0.3050900	0.0371900	0.5897400	-0.1949300	0.0768200	0.7016100	0.8056600	-0.2285600	0.6273800	0.3153600	-0.2258900	0.6101900	-0.1916300	-0.2909100	0.8220800	-0.2299000	-0.3439100	0.7735700	-0.2323800	-0.3767800	0.5436800	-0.2473100	-0.2850400	0.7660600	-0.2453600	0.1529200	0.7294400	-0.2413500	0.1776000	0.5657700	-0.2379100	0.0606600
12	0.1833333	0.6616400	1.3923700	-0.1036800	0.6773800	1.3603800	0.0708300	0.6418200	1.0402900	0.1441700	0.7214000	0.7545000	0.1934900	0.6452400	1.4258400	-0.2773100	0.7890100	1.6685900	-0.4232600	0.8433000	1.9576700	-0.4152700	0.6923800	0.8079300	-0.1066500	0.7062000	0.8110000	0.0120000	0.6142900	0.3055500	0.0351400	0.5897200	-0.1950500	0.0768500	0.7013900	0.8056100	-0.2286300	0.6173500	0.3066100	-0.2264900	0.6102000	-0.1917100	-0.2909300	0.8220400	-0.2300900	-0.3438300	0.7735300	-0.2325400	-0.3768200	0.5436600	-0.2474800	-0.2851800	0.7660400	-0.2454400	0.1527900	0.7298600	-0.2412700	0.1775500	0.5656000	-0.2377900	0.0606600
13	0.2000000	0.6616300	1.3903200	-0.1035200	0.6774300	1.3621200	0.0708300	0.6466600	1.0406000	0.1414500	0.7321100	0.7558000	0.1927400	0.6512600	1.4254500	-0.2745600	0.7837800	1.6769800	-0.4210500	0.8232500	1.9688700	-0.4068100	0.6924300	0.8079800	-0.1067700	0.7067800	0.8110300	0.0119200	0.6093600	0.3002900	0.0376200	0.5903900	-0.1994800	0.0778100	0.7068200	0.8040600	-0.2309500	0.6222800	0.3077500	-0.2283100	0.6101700	-0.1916000	-0.2909000	0.8174700	-0.2298100	-0.3415300	0.7683900	-0.2343100	-0.3747100	0.5436900	-0.2472600	-0.2850300	0.7476000	-0.2527300	0.1632100	0.7245400	-0.2446900	0.1805600	0.5744200	-0.2451300	0.0600300
14	0.2166667	0.6618600	1.3901200	-0.1036300	0.6726000	1.3604400	0.0733600	0.6467300	1.0406000	0.1414700	0.7259500	0.7550700	0.1908800	0.6458800	1.4258000	-0.2772300	0.7839800	1.6874100	-0.4163500	0.8133800	1.9842400	-0.4029800	0.6924400	0.8079800	-0.1066800	0.7061500	0.8152700	0.0119800	0.6141900	0.3009900	0.0346600	0.5903700	-0.1996000	0.0778300	0.7065500	0.8061500	-0.2309300	0.6225800	0.3057900	-0.2285900	0.6101300	-0.1916700	-0.2909200	0.8219900	-0.2299700	-0.3438400	0.7683800	-0.2344400	-0.3747600	0.5436600	-0.2475100	-0.2851800	0.7341700	-0.2551300	0.1700600	0.7250200	-0.2427300	0.1802000	0.5754200	-0.2465500	0.0602400
15	0.2333333	0.6616800	1.3902700	-0.1035100	0.6725700	1.3603900	0.0733500	0.6467100	1.0405700	0.1414000	0.7264700	0.7550900	0.1910000	0.6512800	1.4252800	-0.2745900	0.7788100	1.6897500	-0.4142400	0.8075500	1.9894500	-0.4014400	0.6924300	0.8080000	-0.1067800	0.7067100	0.8152200	0.0119100	0.6200300	0.3023600	0.0365200	0.5904700	-0.1995300	0.0778200	0.7067700	0.8061600	-0.2308800	0.6223800	0.3056000	-0.2285700	0.6100800	-0.1915300	-0.2909000	0.8224200	-0.2278600	-0.3435800	0.7684400	-0.2343000	-0.3747100	0.5436400	-0.2473400	-0.2850500	0.7341100	-0.2550100	0.1701900	0.7245600	-0.2428500	0.1802300	0.5754500	-0.2466900	0.0602900
16	0.2500000	0.6571200	1.3920500	-0.1011800	0.6775600	1.3580600	0.0708800	0.6516900	1.0408800	0.1388000	0.7259500	0.7550400	0.1908200	0.6410400	1.4280900	-0.2703000	0.7785000	1.6960900	-0.4097700	0.8083300	1.9922100	-0.4011100	0.6924600	0.8079800	-0.1066800	0.7109300	0.8158300	0.0095100	0.6199100	0.3022900	0.0366000	0.5908400	-0.2011700	0.0781500	0.7065400	0.8060900	-0.2309300	0.6224700	0.3079400	-0.2283200	0.6100400	-0.1915200	-0.2909200	0.8224000	-0.2280800	-0.3434900	0.7683800	-0.2344600	-0.3747400	0.5436200	-0.2474400	-0.2851800	0.7296400	-0.2570400	0.1726000	0.7250200	-0.2427500	0.1802100	0.5818700	-0.2458600	0.0623400
17	0.2666667	0.6616600	1.3944300	-0.1035000	0.6774700	1.3621600	0.0708200	0.6516300	1.0409100	0.1387400	0.7264800	0.7550900	0.1909800	0.6619300	1.4291600	-0.2652800	0.7770100	1.7020300	-0.4058800	0.8075100	1.9943700	-0.4013300	0.6924600	0.8080300	-0.1067600	0.7067400	0.8152800	0.0119200	0.6199800	0.3046400	0.0367600	0.5908300	-0.2010100	0.0781200	0.7068100	0.8062100	-0.2308600	0.6222800	0.3077500	-0.2283100	0.6100700	-0.1914900	-0.2909000	0.8224900	-0.2280100	-0.3435600	0.7684500	-0.2343300	-0.3747000	0.5436400	-0.2472700	-0.2850400	0.7341100	-0.2549200	0.1702000	0.7245200	-0.2427500	0.1802600	0.5763000	-0.2437000	0.0604800
